<svg width="129" height="129" viewBox="0 0 129 129" fill="none" xmlns="http://www.w3.org/2000/svg">
<path d="M15.3565 102.397C14.6136 102.983 14.4847 104.062 15.0904 104.789C24.3229 115.87 37.0572 123.502 51.2186 126.408C65.9401 129.428 81.2555 127.145 94.4564 119.963C107.657 112.781 117.893 101.162 123.354 87.1607C128.815 73.1597 129.148 57.6787 124.296 43.4554C119.444 29.232 109.718 17.1827 96.8394 9.43814C83.9604 1.6936 68.7577 -1.2472 53.9196 1.1358C39.0815 3.5188 25.5641 11.0721 15.7578 22.4599C6.32456 33.4144 0.909992 47.2383 0.374082 61.6509C0.338924 62.5964 1.10043 63.3717 2.04655 63.3814C2.99268 63.3912 3.76501 62.6316 3.80162 61.6861C4.3283 48.0822 9.44857 35.0375 18.3542 24.6957C27.6329 13.9206 40.4231 6.77365 54.4629 4.51886C68.5027 2.26407 82.8876 5.04665 95.0737 12.3745C107.26 19.7024 116.462 31.1035 121.053 44.5617C125.644 58.0198 125.329 72.6679 120.162 85.9156C114.995 99.1634 105.309 110.157 92.8188 116.953C80.3282 123.749 65.8368 125.909 51.9072 123.051C38.5379 120.308 26.5128 113.112 17.7818 102.667C17.175 101.941 16.0994 101.812 15.3565 102.397Z" fill="white"/>
<path d="M128.038 64.0189C128.038 99.3755 99.3755 128.038 64.0189 128.038C28.6622 128.038 0 99.3755 0 64.0189C0 28.6622 28.6622 0 64.0189 0C99.3755 0 128.038 28.6622 128.038 64.0189ZM3.44418 64.0189C3.44418 97.4734 30.5644 124.594 64.0189 124.594C97.4734 124.594 124.594 97.4734 124.594 64.0189C124.594 30.5644 97.4734 3.44418 64.0189 3.44418C30.5644 3.44418 3.44418 30.5644 3.44418 64.0189Z" fill="#6B77E5"/>
<path d="M41.5836 48.6837H30.6636V53.5137C31.1302 53.0004 31.7836 52.5804 32.6236 52.2537C33.4636 51.9271 34.3736 51.7637 35.3536 51.7637C37.1036 51.7637 38.5502 52.1604 39.6936 52.9537C40.8602 53.7471 41.7119 54.7737 42.2486 56.0337C42.7852 57.2937 43.0536 58.6587 43.0536 60.1287C43.0536 62.8587 42.2836 65.0287 40.7436 66.6387C39.2036 68.2254 37.0336 69.0187 34.2336 69.0187C32.3669 69.0187 30.7452 68.7037 29.3686 68.0737C27.9919 67.4204 26.9302 66.5221 26.1836 65.3787C25.4369 64.2354 25.0286 62.9171 24.9586 61.4237H30.8036C30.9436 62.1471 31.2819 62.7537 31.8186 63.2437C32.3552 63.7104 33.0902 63.9437 34.0236 63.9437C35.1202 63.9437 35.9369 63.5937 36.4736 62.8937C37.0102 62.1937 37.2786 61.2604 37.2786 60.0937C37.2786 58.9504 36.9986 58.0754 36.4386 57.4687C35.8786 56.8621 35.0619 56.5587 33.9886 56.5587C33.1952 56.5587 32.5419 56.7571 32.0286 57.1537C31.5152 57.5271 31.1769 58.0287 31.0136 58.6587H25.2386V43.4337H41.5836V48.6837ZM58.9922 50.3637C58.8056 49.5004 58.4789 48.8587 58.0122 48.4387C57.5456 47.9954 56.8806 47.7737 56.0172 47.7737C54.6872 47.7737 53.7306 48.3571 53.1472 49.5237C52.5639 50.6671 52.2606 52.4871 52.2372 54.9837C52.7506 54.1671 53.4856 53.5254 54.4422 53.0587C55.4222 52.5921 56.4956 52.3587 57.6622 52.3587C59.9489 52.3587 61.7806 53.0821 63.1572 54.5287C64.5572 55.9754 65.2572 57.9937 65.2572 60.5837C65.2572 62.2871 64.9072 63.7804 64.2072 65.0637C63.5306 66.3471 62.5272 67.3504 61.1972 68.0737C59.8906 68.7971 58.3389 69.1587 56.5422 69.1587C52.9489 69.1587 50.4522 68.0387 49.0522 65.7987C47.6522 63.5354 46.9522 60.2921 46.9522 56.0687C46.9522 51.6354 47.6872 48.3454 49.1572 46.1987C50.6506 44.0287 53.0306 42.9437 56.2972 42.9437C58.0472 42.9437 59.5172 43.2937 60.7072 43.9937C61.9206 44.6704 62.8306 45.5687 63.4372 46.6887C64.0672 47.8087 64.4406 49.0337 64.5572 50.3637H58.9922ZM56.2272 57.0837C55.2239 57.0837 54.3839 57.3871 53.7072 57.9937C53.0539 58.5771 52.7272 59.4171 52.7272 60.5137C52.7272 61.6337 53.0306 62.5087 53.6372 63.1387C54.2672 63.7687 55.1539 64.0837 56.2972 64.0837C57.3239 64.0837 58.1289 63.7804 58.7122 63.1737C59.3189 62.5437 59.6222 61.6921 59.6222 60.6187C59.6222 59.5221 59.3306 58.6587 58.7472 58.0287C58.1639 57.3987 57.3239 57.0837 56.2272 57.0837ZM68.4324 64.2237C69.2257 63.5937 69.5874 63.3021 69.5174 63.3487C71.804 61.4587 73.6007 59.9071 74.9074 58.6937C76.2374 57.4804 77.3574 56.2087 78.2674 54.8787C79.1774 53.5487 79.6324 52.2537 79.6324 50.9937C79.6324 50.0371 79.4107 49.2904 78.9674 48.7537C78.524 48.2171 77.859 47.9487 76.9724 47.9487C76.0857 47.9487 75.3857 48.2871 74.8724 48.9637C74.3824 49.6171 74.1374 50.5504 74.1374 51.7637H68.3624C68.409 49.7804 68.829 48.1237 69.6224 46.7937C70.439 45.4637 71.5007 44.4837 72.8074 43.8537C74.1374 43.2237 75.6074 42.9087 77.2174 42.9087C79.994 42.9087 82.0824 43.6204 83.4824 45.0437C84.9057 46.4671 85.6174 48.3221 85.6174 50.6087C85.6174 53.1054 84.7657 55.4271 83.0624 57.5737C81.359 59.6971 79.189 61.7737 76.5524 63.8037H86.0024V68.6687H68.4324V64.2237ZM106.978 59.4637H100.888V65.6937H95.2175V59.4637H89.1275V54.1087H95.2175V47.8437H100.888V54.1087H106.978V59.4637Z" fill="white"/>
<path d="M42.4226 80.3427C42.4226 81.0147 42.2606 81.6447 41.9366 82.2327C41.6246 82.8207 41.1266 83.2947 40.4426 83.6547C39.7706 84.0147 38.9186 84.1947 37.8866 84.1947H35.7806V89.0187H33.2606V76.4547H37.8866C38.8586 76.4547 39.6866 76.6227 40.3706 76.9587C41.0546 77.2947 41.5646 77.7567 41.9006 78.3447C42.2486 78.9327 42.4226 79.5987 42.4226 80.3427ZM37.7786 82.1607C38.4746 82.1607 38.9906 82.0047 39.3266 81.6927C39.6626 81.3687 39.8306 80.9187 39.8306 80.3427C39.8306 79.1187 39.1466 78.5067 37.7786 78.5067H35.7806V82.1607H37.7786ZM46.7317 80.5947C47.0557 80.0667 47.4757 79.6527 47.9917 79.3527C48.5197 79.0527 49.1197 78.9027 49.7917 78.9027V81.5487H49.1257C48.3337 81.5487 47.7337 81.7347 47.3257 82.1067C46.9297 82.4787 46.7317 83.1267 46.7317 84.0507V89.0187H44.2117V79.0467H46.7317V80.5947ZM55.9171 89.1807C54.9571 89.1807 54.0931 88.9707 53.3251 88.5507C52.5571 88.1187 51.9511 87.5127 51.5071 86.7327C51.0751 85.9527 50.8591 85.0527 50.8591 84.0327C50.8591 83.0127 51.0811 82.1127 51.5251 81.3327C51.9811 80.5527 52.5991 79.9527 53.3791 79.5327C54.1591 79.1007 55.0291 78.8847 55.9891 78.8847C56.9491 78.8847 57.8191 79.1007 58.5991 79.5327C59.3791 79.9527 59.9911 80.5527 60.4351 81.3327C60.8911 82.1127 61.1191 83.0127 61.1191 84.0327C61.1191 85.0527 60.8851 85.9527 60.4171 86.7327C59.9611 87.5127 59.3371 88.1187 58.5451 88.5507C57.7651 88.9707 56.8891 89.1807 55.9171 89.1807ZM55.9171 86.9847C56.3731 86.9847 56.7991 86.8767 57.1951 86.6607C57.6031 86.4327 57.9271 86.0967 58.1671 85.6527C58.4071 85.2087 58.5271 84.6687 58.5271 84.0327C58.5271 83.0847 58.2751 82.3587 57.7711 81.8547C57.2791 81.3387 56.6731 81.0807 55.9531 81.0807C55.2331 81.0807 54.6271 81.3387 54.1351 81.8547C53.6551 82.3587 53.4151 83.0847 53.4151 84.0327C53.4151 84.9807 53.6491 85.7127 54.1171 86.2287C54.5971 86.7327 55.1971 86.9847 55.9171 86.9847ZM64.2456 77.8587C63.7896 77.8587 63.4116 77.7207 63.1116 77.4447C62.8236 77.1567 62.6796 76.8027 62.6796 76.3827C62.6796 75.9627 62.8236 75.6147 63.1116 75.3387C63.4116 75.0507 63.7896 74.9067 64.2456 74.9067C64.6896 74.9067 65.0556 75.0507 65.3436 75.3387C65.6316 75.6147 65.7756 75.9627 65.7756 76.3827C65.7756 76.8027 65.6316 77.1567 65.3436 77.4447C65.0556 77.7207 64.6896 77.8587 64.2456 77.8587ZM65.4876 90.6567C65.4876 91.7607 65.2116 92.5527 64.6596 93.0327C64.1196 93.5247 63.3396 93.7707 62.3196 93.7707H61.2036V91.6287H61.9236C62.3076 91.6287 62.5776 91.5507 62.7336 91.3947C62.8896 91.2507 62.9676 91.0107 62.9676 90.6747V79.0467H65.4876V90.6567ZM77.2474 83.8167C77.2474 84.1767 77.2234 84.5007 77.1754 84.7887H69.8854C69.9454 85.5087 70.1974 86.0727 70.6414 86.4807C71.0854 86.8887 71.6314 87.0927 72.2794 87.0927C73.2154 87.0927 73.8814 86.6907 74.2774 85.8867H76.9954C76.7074 86.8467 76.1554 87.6387 75.3394 88.2627C74.5234 88.8747 73.5214 89.1807 72.3334 89.1807C71.3734 89.1807 70.5094 88.9707 69.7414 88.5507C68.9854 88.1187 68.3914 87.5127 67.9594 86.7327C67.5394 85.9527 67.3294 85.0527 67.3294 84.0327C67.3294 83.0007 67.5394 82.0947 67.9594 81.3147C68.3794 80.5347 68.9674 79.9347 69.7234 79.5147C70.4794 79.0947 71.3494 78.8847 72.3334 78.8847C73.2814 78.8847 74.1274 79.0887 74.8714 79.4967C75.6274 79.9047 76.2094 80.4867 76.6174 81.2427C77.0374 81.9867 77.2474 82.8447 77.2474 83.8167ZM74.6374 83.0967C74.6254 82.4487 74.3914 81.9327 73.9354 81.5487C73.4794 81.1527 72.9214 80.9547 72.2614 80.9547C71.6374 80.9547 71.1094 81.1467 70.6774 81.5307C70.2574 81.9027 69.9994 82.4247 69.9034 83.0967H74.6374ZM78.4387 84.0327C78.4387 83.0007 78.6487 82.1007 79.0687 81.3327C79.4887 80.5527 80.0707 79.9527 80.8147 79.5327C81.5587 79.1007 82.4107 78.8847 83.3707 78.8847C84.6067 78.8847 85.6267 79.1967 86.4307 79.8207C87.2467 80.4327 87.7927 81.2967 88.0687 82.4127H85.3507C85.2067 81.9807 84.9607 81.6447 84.6127 81.4047C84.2767 81.1527 83.8567 81.0267 83.3527 81.0267C82.6327 81.0267 82.0627 81.2907 81.6427 81.8187C81.2227 82.3347 81.0127 83.0727 81.0127 84.0327C81.0127 84.9807 81.2227 85.7187 81.6427 86.2467C82.0627 86.7627 82.6327 87.0207 83.3527 87.0207C84.3727 87.0207 85.0387 86.5647 85.3507 85.6527H88.0687C87.7927 86.7327 87.2467 87.5907 86.4307 88.2267C85.6147 88.8627 84.5947 89.1807 83.3707 89.1807C82.4107 89.1807 81.5587 88.9707 80.8147 88.5507C80.0707 88.1187 79.4887 87.5187 79.0687 86.7507C78.6487 85.9707 78.4387 85.0647 78.4387 84.0327ZM92.8489 81.1167V85.9407C92.8489 86.2767 92.9269 86.5227 93.0829 86.6787C93.2509 86.8227 93.5269 86.8947 93.9109 86.8947H95.0809V89.0187H93.4969C91.3729 89.0187 90.3109 87.9867 90.3109 85.9227V81.1167H89.1229V79.0467H90.3109V76.5807H92.8489V79.0467H95.0809V81.1167H92.8489Z" fill="white"/>
</svg>
